<?xml version="1.0" standalone="no"?>
<!DOCTYPE svg PUBLIC "-//W3C//DTD SVG 20010904//EN"
 "http://www.w3.org/TR/2001/REC-SVG-20010904/DTD/svg10.dtd">
<svg version="1.0" xmlns="http://www.w3.org/2000/svg"
 width="750.000000pt" height="750.000000pt" viewBox="0 0 750.000000 750.000000"
 preserveAspectRatio="xMidYMid meet">
<metadata>
Created by potrace 1.11, written by Peter Selinger 2001-2013
</metadata>
<g transform="translate(0.000000,750.000000) scale(0.100000,-0.100000)"
fill="#000000" stroke="none">
<path d="M4018 7135 c-92 -46 -189 -99 -215 -118 -26 -18 -84 -57 -128 -87
-66 -45 -175 -129 -195 -150 -3 -3 -63 -55 -135 -115 -71 -61 -140 -119 -151
-130 -17 -16 -205 -309 -250 -390 -6 -11 -30 -49 -52 -85 -199 -316 -225 -363
-308 -568 -50 -124 -84 -196 -87 -185 -3 10 -10 43 -16 73 -24 118 -60 306
-65 335 -3 17 -8 41 -11 55 -3 14 -12 63 -21 110 -9 47 -18 92 -19 100 -2 8
-24 114 -49 235 -26 121 -53 236 -62 255 -28 65 -67 98 -216 179 -130 72 -161
85 -270 110 -134 32 -158 36 -264 46 -60 6 -92 2 -212 -26 -78 -18 -142 -35
-142 -38 0 -3 37 -26 82 -51 l81 -45 103 0 103 0 40 -77 c22 -44 38 -88 36
-100 -2 -13 -6 -90 -10 -173 -3 -82 -7 -172 -10 -200 -2 -27 -7 -99 -10 -160
-3 -60 -8 -132 -10 -160 -3 -27 -7 -93 -10 -145 -9 -157 -15 -271 -20 -345 -3
-38 -7 -218 -10 -400 -10 -702 -16 -1022 -20 -1075 -6 -80 -14 -407 -21 -880
-3 -228 -7 -453 -7 -500 -2 -79 -1 -85 18 -83 36 4 99 15 105 18 3 2 21 6 40
9 109 17 276 59 620 153 212 57 386 106 388 108 4 3 9 33 17 95 4 29 8 62 10
72 2 11 9 52 15 91 5 40 14 101 20 137 5 36 12 85 15 110 3 25 10 72 16 105 5
33 11 74 13 90 3 17 7 53 11 80 5 28 8 180 9 340 l1 289 295 138 c162 75 349
162 414 193 127 59 133 60 266 40 14 -2 59 -6 100 -10 41 -4 86 -8 100 -10 14
-2 57 -7 95 -11 39 -3 81 -8 95 -9 14 -2 36 -3 50 -4 26 -1 24 2 130 -190 14
-25 35 -62 47 -81 14 -22 24 -58 27 -100 5 -63 18 -249 20 -300 1 -14 -21 -77
-47 -141 l-48 -115 -141 -99 c-77 -54 -175 -131 -217 -170 -88 -84 -118 -112
-260 -244 -57 -53 -149 -148 -204 -211 -55 -63 -106 -119 -112 -125 -7 -5 -70
-98 -140 -205 -70 -107 -167 -253 -214 -325 -94 -143 -161 -292 -233 -520 -38
-120 -45 -171 -34 -232 2 -10 7 -50 10 -88 4 -39 8 -81 11 -95 2 -14 7 -54 11
-90 3 -36 8 -74 10 -85 2 -11 7 -39 10 -63 8 -67 17 -84 96 -173 112 -128 118
-134 193 -174 39 -21 93 -50 120 -65 l50 -28 85 14 c47 7 98 13 114 13 17 1
109 33 205 73 137 56 208 92 321 165 l146 92 189 213 c105 116 199 222 210
234 11 12 34 37 50 55 100 113 294 329 318 354 24 26 65 96 197 340 22 40 202
370 350 640 15 28 44 82 65 120 21 39 46 84 56 101 16 26 50 156 75 284 3 14
10 45 15 70 6 25 12 52 14 61 2 9 20 92 41 185 21 93 37 180 37 194 -1 14 -17
91 -37 172 -20 80 -36 150 -36 155 0 5 24 20 53 33 28 13 160 76 292 140 132
64 304 147 383 185 130 63 142 71 142 95 l0 27 -82 -23 c-46 -12 -126 -35
-178 -49 -52 -15 -99 -28 -105 -29 -5 -1 -19 -5 -30 -9 -11 -3 -31 -8 -45 -11
-14 -2 -128 -29 -253 -60 -126 -31 -234 -56 -241 -56 -13 0 -41 29 -251 254
-229 247 -269 286 -295 287 -14 0 -34 2 -45 4 -11 2 -132 20 -270 40 -137 20
-261 38 -274 40 -13 2 -45 7 -70 11 -25 3 -56 7 -67 9 -12 2 -47 6 -78 10
l-56 7 32 57 c17 31 78 136 135 233 57 98 107 188 112 200 5 13 21 50 36 83
32 69 31 67 86 320 48 225 46 214 54 290 3 33 8 74 11 90 2 17 6 57 9 90 3 33
8 85 12 115 5 30 8 125 8 211 l-1 157 -43 100 c-42 96 -48 105 -155 209 -142
138 -148 143 -182 149 -16 2 -51 9 -77 14 -26 6 -51 10 -55 9 -4 0 -82 -38
-174 -84z m318 -360 c11 -84 7 -156 -14 -245 -12 -47 -37 -157 -56 -245 -42
-191 -115 -369 -204 -498 -31 -45 -70 -102 -87 -126 -42 -61 -134 -161 -325
-351 l-167 -165 -287 -188 c-257 -168 -303 -194 -428 -244 -76 -30 -141 -54
-143 -52 -2 2 -31 71 -64 153 l-61 149 46 46 c46 46 91 111 224 321 125 198
140 220 284 420 77 107 166 232 198 276 31 45 72 96 90 112 18 17 52 48 74 69
23 21 66 60 95 87 30 26 119 110 199 186 80 76 168 159 195 185 49 46 76 70
205 177 119 99 107 96 167 36 45 -45 53 -60 59 -103z m-42 -3758 c-7 -37 -16
-80 -19 -95 -5 -32 -22 -117 -30 -152 -3 -14 -8 -38 -11 -55 -3 -16 -37 -138
-76 -270 -71 -242 -84 -273 -185 -435 -26 -41 -121 -194 -211 -340 -90 -146
-197 -317 -236 -380 l-72 -115 -105 -58 c-57 -32 -140 -78 -184 -102 -44 -23
-94 -51 -111 -61 -39 -22 -61 -14 -72 28 -21 81 200 623 419 1028 l149 275
267 301 c148 166 297 328 332 360 35 32 85 78 110 101 25 23 46 41 47 40 2 -1
-4 -33 -12 -70z"/>
</g>
</svg>
